<?xml version="1.0" encoding="utf-8"?>
<!-- Generator: Adobe Illustrator 27.8.1, SVG Export Plug-In . SVG Version: 6.00 Build 0)  -->
<svg version="1.1" id="Layer_1" xmlns="http://www.w3.org/2000/svg" xmlns:xlink="http://www.w3.org/1999/xlink" x="0px" y="0px"
	 viewBox="0 0 504 504" style="enable-background:new 0 0 504 504;" xml:space="preserve">
<style type="text/css">
	.st0{fill:#005C78;stroke:#000000;stroke-width:3;stroke-miterlimit:10;}
	.st1{fill:#FFFFFF;}
	.st2{font-family:'HelveticaNeue-BoldItalic';}
	.st3{font-size:40px;}
	.st4{fill:#D7EEF6;}
	.st5{fill:#1EBAE5;}
</style>
<polygon class="st0" points="243.9,409.9 90.4,321.3 90.4,144.2 243.9,55.6 397.3,144.2 397.3,321.3 "/>
<text transform="matrix(1 0 0 1 98.6472 321.7348)" class="st1 st2 st3">tidyMicrobiome</text>
<g>
	<path class="st4" d="M161.3,182.2c0,41.2,33.4,74.7,74.7,74.7s74.7-33.4,74.7-74.7c0-41.2-33.4-74.7-74.7-74.7
		S161.3,140.9,161.3,182.2L161.3,182.2z M161.3,182.2"/>
	<path class="st5" d="M343.7,179.6h-10.8c-0.9-11.1-3.9-21.7-8.5-31.3l9.4-5.5c3.5-2,4.7-6.5,2.6-10c-2-3.5-6.5-4.7-10-2.6l-9.4,5.5
		c-6.6-9.4-14.9-17.5-24.5-23.8l5.2-9.5c1.9-3.5,0.6-8-2.9-9.9c-3.5-1.9-8-0.6-9.9,2.9l-5.2,9.5c-9-4-18.7-6.5-28.9-7.4V86.6
		c0-4-3.3-7.3-7.3-7.3c-4,0-7.3,3.3-7.3,7.3v10.8c-11.7,0.9-22.7,4.1-32.6,9.1l-5.6-9.3c-2.1-3.5-6.6-4.6-10-2.5
		c-3.5,2.1-4.6,6.6-2.5,10l5.6,9.3c-9.2,6.7-17.2,15.1-23.3,24.7l-9.6-5c-3.6-1.9-8-0.5-9.9,3.1c-1.9,3.6-0.5,8,3.1,9.9l9.5,5
		c-3.7,8.7-6,18-6.8,27.8h-10.8c-4,0-7.3,3.3-7.3,7.3c0,4,3.3,7.3,7.3,7.3h10.8c0.9,11.1,3.9,21.7,8.5,31.3L153,231
		c-3.5,2-4.7,6.5-2.6,10c2,3.5,6.5,4.7,10,2.6l9.4-5.5c6.6,9.4,14.9,17.5,24.5,23.8l-5.2,9.5c-1.9,3.5-0.6,8,2.9,9.9
		c3.5,1.9,8,0.6,9.9-2.9l5.2-9.5c9,4,18.7,6.5,28.9,7.3v10.8c0,4,3.3,7.3,7.3,7.3c4,0,7.3-3.3,7.3-7.3v-10.8
		c11.7-0.9,22.7-4.1,32.6-9.1l5.6,9.3c2.1,3.4,6.6,4.6,10,2.5c3.4-2.1,4.6-6.6,2.5-10l-5.6-9.3c9.2-6.7,17.2-15.1,23.3-24.7l9.6,5.1
		c3.6,1.9,8,0.5,9.9-3.1c1.9-3.6,0.5-8-3.1-9.9l-9.5-5c3.7-8.7,6-18,6.8-27.8h10.8c4,0,7.3-3.3,7.3-7.3
		C351,182.9,347.7,179.6,343.7,179.6L343.7,179.6z M243.4,265.3c-43.2,0-78.3-35.1-78.3-78.3c0-43.2,35.1-78.3,78.3-78.3
		c43.2,0,78.3,35.1,78.3,78.3C321.7,230.1,286.6,265.3,243.4,265.3L243.4,265.3z M284.3,248.1c0,2.4-2,4.4-4.4,4.4
		c-2.4,0-4.4-2-4.4-4.4s2-4.4,4.4-4.4C282.4,243.7,284.3,245.6,284.3,248.1L284.3,248.1z M211.9,234.9c0,3.6-3,6.6-6.6,6.6
		c-3.6,0-6.6-3-6.6-6.6c0-3.6,3-6.6,6.6-6.6C208.9,228.3,211.9,231.2,211.9,234.9L211.9,234.9z M214,122.9c0-3.6,3-6.6,6.6-6.6
		c3.6,0,6.6,3,6.6,6.6c0,3.6-3,6.6-6.6,6.6C217,129.4,214,126.5,214,122.9L214,122.9z M258,151.4c0-2.4,2-4.4,4.4-4.4
		c2.4,0,4.4,2,4.4,4.4c0,2.4-2,4.4-4.4,4.4C259.9,155.8,258,153.8,258,151.4L258,151.4z M278.6,199.7l2.5-17.4
		c4.4-1.2,7.6-5.1,7.6-9.9c0-5.7-4.6-10.3-10.3-10.3c-5.7,0-10.3,4.6-10.3,10.3c0,3.9,2.2,7.2,5.3,9l-2.5,17.3
		c-4.3,0.3-8.1,2.1-11,4.9l-26-21.2c1.5-3,2.4-6.4,2.4-10c0-12.8-10.4-23.2-23.2-23.2c-12.8,0-23.2,10.4-23.2,23.2
		c0,12.8,10.4,23.2,23.2,23.2c6.4,0,12.2-2.6,16.4-6.8l26.3,21.4c-0.7,1.9-1.1,3.9-1.1,6c0,9.7,7.9,17.6,17.6,17.6
		c9.7,0,17.6-7.9,17.6-17.6C289.9,208.6,285.2,202.3,278.6,199.7L278.6,199.7z M272.2,229.4c-7.3,0-13.2-5.9-13.2-13.2
		c0-7.3,5.9-13.2,13.2-13.2c7.3,0,13.2,5.9,13.2,13.2C285.5,223.4,279.6,229.4,272.2,229.4L272.2,229.4z M272.2,229.4"/>
</g>
</svg>
